<?xml version="1.0" encoding="UTF-8"?>
<svg id="Layer_1" xmlns="http://www.w3.org/2000/svg" version="1.1" viewBox="0 0 280 280">
  <!-- Generator: Adobe Illustrator 29.2.1, SVG Export Plug-In . SVG Version: 2.1.0 Build 116)  -->
  <defs>
    <style>
      .st0 {
        fill: #adccd4;
      }

      .st1 {
        fill: #ede8e6;
      }

      .st2 {
        fill: #2e2f30;
      }
    </style>
  </defs>
  <rect class="st2" x="-9.29" y="-9.29" width="296.66" height="296.66"/>
  <g>
    <circle class="st1" cx="140" cy="140" r="133.12"/>
    <circle class="st2" cx="140" cy="140" r="115.67"/>
    <g>
      <path class="st0" d="M190.72,90.25c-12.47,0-22.83-9.01-24.94-20.87h-.8c-2.11,11.86-12.47,20.87-24.94,20.87s-22.83-9.01-24.94-20.87h-.8c-2.11,11.86-12.47,20.87-24.94,20.87s-22.83-9.01-24.94-20.87h-.4v30.72c0,1.14.93,2.07,2.07,2.07h147.91c1.14,0,2.07-.93,2.07-2.07v-30.72h-.4c-2.11,11.86-12.47,20.87-24.94,20.87Z"/>
      <path class="st0" d="M214.88,149.1c-1.59-20.1-18.22-36.19-38.37-37.14-15.82-.75-29.75,7.59-37.04,20.24-7.59-13.17-22.38-21.67-39-20.1-18.93,1.78-34.3,16.96-36.31,35.87-1.04,9.75,1.41,18.88,6.23,26.34.54,1.22,6.89,8.13,7.93,9.55l60.63,57.56c2.32-1.81,63.47-59.36,63.47-59.36.71-.98,4.87-5.57,5.32-6.55,5.15-7.38,7.91-16.55,7.14-26.4Z"/>
    </g>
  </g>
</svg>