<svg width="636" height="200" viewBox="0 0 636 200" fill="none" xmlns="http://www.w3.org/2000/svg">
<path d="M498.97 11.25C492.25 11.25 486.66 6.39 485.52 0H485.09C483.95 6.4 478.36 11.25 471.64 11.25C464.92 11.25 459.33 6.39 458.19 0H457.76C456.62 6.4 451.03 11.25 444.31 11.25C437.59 11.25 432 6.39 430.86 0H430.64V16.57C430.64 17.19 431.14 17.69 431.76 17.69H511.53C512.15 17.69 512.65 17.19 512.65 16.57V0H512.43C511.29 6.4 505.7 11.25 498.98 11.25H498.97Z" fill="#2E2F30"/>
<path d="M225.2 126.77L214.09 151C212.47 154.63 211.06 156.05 207.02 156.05C204.19 156.05 202.17 154.23 202.17 152.01C202.17 150.39 202.78 149.38 202.78 149.38L258.72 29.63C259.73 27.61 260.94 25.19 263.97 25.19C267 25.19 268.01 27.61 269.02 29.83L325.76 149.38C325.76 149.38 326.37 150.39 326.37 152.01C326.37 153.63 324.96 156.05 321.52 156.05C318.49 156.05 316.67 154.64 315.46 152.21L303.55 126.77H225.2ZM230.25 116.07H298.5L264.17 42.97L230.25 116.07Z" fill="#2E2F30"/>
<path d="M307.35 27.26L358.64 136.3L409.93 26.65C410.74 24.83 412.35 23.42 415.18 23.42C418.41 23.42 420.23 25.04 420.23 27.26C420.23 28.88 419.62 29.89 419.62 29.89L362.27 152.06C361.66 153.27 360.45 153.88 358.23 153.88C356.01 153.88 355 153.27 354.39 152.06L297.04 29.89C297.04 29.89 296.43 29.08 296.43 27.06C296.43 25.44 297.84 23.43 301.68 23.43C305.31 23.43 306.32 25.05 307.33 27.27L307.35 27.26Z" fill="#2E2F30"/>
<path d="M513.52 141.55C513.52 141.55 516.95 142.56 516.95 146.8C516.95 151.04 513.52 152.05 513.52 152.05H433.76C431.74 152.05 430.33 150.64 430.33 148.62V26.85C430.33 24.63 431.74 23.42 433.76 23.42H508.68C508.68 23.42 512.11 24.23 512.11 28.47C512.11 32.71 508.68 33.92 508.68 33.92H441.84V95.91H498.18C498.18 95.91 501.61 96.92 501.61 101.36C501.61 105.8 498.18 106.61 498.18 106.61H441.84V141.55H513.53H513.52Z" fill="#2E2F30"/>
<path d="M540.49 27.64L625.5 134.06V28.65C625.5 27.24 626.91 25.42 630.55 25.42C634.19 25.42 635.6 27.24 635.6 28.65V151.02C635.6 153.04 633.98 154.05 631.36 154.05C628.33 154.05 627.12 152.43 625.91 150.82L539.28 44.2V150.62C539.28 152.24 538.07 154.05 534.23 154.05C530.39 154.05 529.18 152.43 529.18 150.62V28.85C529.18 27.23 530.8 25.42 534.83 25.42C537.25 25.42 539.47 26.23 540.48 27.64H540.49Z" fill="#2E2F30"/>
<path d="M255.81 175.29H259.23L276.91 194.9V175.26H280.29V199.16H277L259.19 179.44V199.16H255.81V175.29Z" fill="#2E2F30"/>
<path d="M282.7 199.16L296.63 175.29H300.34L313.77 199.16H310.27L308.02 195.16H288.59L286.3 199.16H282.71H282.7ZM306.85 193.07L298.47 178.02L289.8 193.07H306.86H306.85Z" fill="#2E2F30"/>
<path d="M318.27 177.49H310.22V175.23H329.7V177.49H321.65V199.16H318.27V177.49Z" fill="#2E2F30"/>
<path d="M332.41 190.05V175.29H335.79V190.11C335.79 194.03 338.17 197.25 344.26 197.25C350.35 197.25 352.81 194.03 352.81 190.11V175.29H356.19V190.05C356.19 195.5 352.1 199.54 344.26 199.54C336.42 199.54 332.42 195.48 332.42 190.05H332.41Z" fill="#2E2F30"/>
<path d="M360.98 175.26H367.65C377.99 175.26 381.75 179.47 381.75 184.02C381.75 187.21 379.83 190.23 375.24 191.74L381.58 199.17H377.58L372.16 192.47C370.87 192.64 369.49 192.76 367.95 192.76H364.36V199.2H360.98V175.27V175.26ZM368.02 190.46C374.82 190.46 378.45 187.94 378.45 184.02C378.45 180.1 374.7 177.55 368.02 177.55H364.35V190.46H368.02Z" fill="#2E2F30"/>
<path d="M381.03 199.16L394.96 175.29H398.67L412.1 199.16H408.6L406.35 195.16H386.92L384.63 199.16H381.04H381.03ZM405.18 193.07L396.8 178.02L388.13 193.07H405.19H405.18Z" fill="#2E2F30"/>
<path d="M414.56 175.29H417.94V196.9H430.58V199.16H414.57V175.29H414.56Z" fill="#2E2F30"/>
<path d="M449.38 192.2V182.22C449.38 177.7 453.51 175.11 459.43 175.11V177.43C455.34 177.43 452.76 179.08 452.76 182.25V192.2C452.76 196.73 448.63 199.37 442.75 199.37V197.05C446.8 197.05 449.38 195.4 449.38 192.21V192.2Z" fill="#2E2F30"/>
<path d="M462.81 175.29H466.19V185.47L478.12 175.29H482.41L469.44 185.96L485.41 199.16H480.99L466.19 186.51V199.19H462.81V175.29Z" fill="#2E2F30"/>
<path d="M487.12 175.29H490.5V199.16H487.12V175.29Z" fill="#2E2F30"/>
<path d="M495.59 175.29H499.01L516.69 194.9V175.26H520.07V199.16H516.78L498.97 179.44V199.16H495.59V175.29Z" fill="#2E2F30"/>
<path d="M523.86 187.21C523.86 180.57 531.62 175.09 541.71 175.09V177.41C533.45 177.41 527.24 181.85 527.24 187.21C527.24 192.57 533.45 196.99 541.71 196.99V199.31C531.62 199.31 523.86 193.86 523.86 187.21Z" fill="#2E2F30"/>
<path d="M542.58 199.16L556.51 175.29H560.22L573.65 199.16H570.15L567.9 195.16H548.47L546.18 199.16H542.59H542.58ZM566.73 193.07L558.35 178.02L549.68 193.07H566.74H566.73Z" fill="#2E2F30"/>
<path d="M576.11 175.26H582.78C593.12 175.26 596.88 179.47 596.88 184.02C596.88 187.21 594.96 190.23 590.37 191.74L596.71 199.17H592.71L587.29 192.47C586 192.64 584.62 192.76 583.08 192.76H579.49V199.2H576.11V175.27V175.26ZM583.16 190.46C589.96 190.46 593.59 187.94 593.59 184.02C593.59 180.1 589.84 177.55 583.16 177.55H579.49V190.46H583.16Z" fill="#2E2F30"/>
<path d="M599.42 187.21C599.42 180.57 607.09 174.79 617.27 174.79C627.45 174.79 635.66 180.71 635.04 187.67H602.76C602.97 192.89 609.14 197.33 617.27 197.33C623.78 197.33 629.24 194.28 630.91 190.4H634.54C632.62 195.59 625.66 199.6 617.28 199.6C607.1 199.6 599.43 193.86 599.43 187.21H599.42ZM631.49 185.53C630.66 180.89 624.61 177.03 617.27 177.03C609.93 177.03 604.01 180.86 603.01 185.53H631.49Z" fill="#2E2F30"/>
<path d="M205.52 95.9C209.43 95.9 211.47 98.79 211.47 100.83C211.47 102.02 211.47 102.36 210.96 103.38C207.73 108.82 199.78 124.38 188.39 126.42L188.69 152.34C188.69 152.34 188.69 156.25 183.59 156.25C178.49 156.25 178.49 152.34 178.49 152.34L178.39 126.42C150.51 124.21 126.82 99.47 95.2 91.48V107.46C111.01 111.2 129.39 125.96 129.39 149.42C129.39 177.13 98.09 198.75 61.88 198.75C22.61 198.75 0 174.78 0 140.44C0 106.1 28.05 78.39 65.45 78.39C72.25 78.39 78.88 79.07 85 79.92V32.66C85 32.66 85 28.75 90.1 28.75C95.2 28.75 95.2 32.66 95.2 32.66V81.96C128.69 89.78 152.15 108.48 178.5 110.35V32.66C178.5 32.66 178.5 28.75 183.6 28.75C188.7 28.75 188.7 32.66 188.7 32.66V109.67C194.82 107.8 198.56 103.38 201.45 98.96C202.64 96.92 203.83 95.9 205.53 95.9H205.52ZM84.99 152.34V115.62H84.65C63.91 115.62 59.15 125.99 57.79 135.34C57.45 137.55 56.43 138.74 53.2 138.74C50.48 138.74 49.12 138.23 49.12 135.34C49.12 121.91 60.51 106.61 84.99 106.27V89.27C78.7 88.25 72.24 87.57 65.44 87.57C30.93 87.57 10.36 108.31 10.36 140.44C10.36 172.57 33.14 189.57 61.87 189.57C94.85 189.57 114.57 170.19 114.57 145.37C114.57 131.43 106.75 121.06 95.19 117.32V152.34C95.19 152.34 95.19 156.25 90.09 156.25C84.99 156.25 84.99 152.34 84.99 152.34Z" fill="#2E2F30"/>
</svg>
